<svg width="512" height="512" viewBox="0 0 512 512" fill="none" xmlns="http://www.w3.org/2000/svg">
<rect x="2" y="1" width="509" height="509" rx="254.5" fill="#FAFAFA"/>
<rect x="188.403" y="150.344" width="58.8727" height="99.2425" fill="#006B33"/>
<rect x="264.095" y="150.344" width="58.8727" height="99.2425" fill="#006B33"/>
<path d="M255.265 57.83C346.005 57.83 422.554 118.592 446.443 201.647H385.657C364.087 151.207 314.015 115.861 255.686 115.861C177.651 115.861 114.391 179.121 114.391 257.156C114.391 322.722 159.051 377.854 219.609 393.8C220.891 412.375 236.365 427.046 255.266 427.046C274.091 427.046 289.516 412.493 290.907 394.024C351.9 378.375 396.98 323.03 396.98 257.156C396.98 254.901 396.925 252.657 396.821 250.428H454.073C454.138 252.522 454.17 254.625 454.17 256.735C454.17 366.588 365.118 455.641 255.265 455.641C145.413 455.64 56.3599 366.588 56.3599 256.735C56.36 146.883 145.413 57.8301 255.265 57.83Z" fill="#006B33"/>
<path d="M188.825 249.587C188.547 252.072 188.402 254.597 188.402 257.156C188.402 294.315 218.526 324.439 255.686 324.439C292.845 324.439 322.969 294.316 322.969 257.156C322.969 254.597 322.825 252.072 322.547 249.587H381.615C381.763 252.091 381.841 254.615 381.841 257.156C381.841 315.369 342.412 364.371 288.805 378.918C283.768 365.281 270.653 355.557 255.266 355.557C239.958 355.558 226.9 365.181 221.806 378.707C168.586 363.905 129.529 315.093 129.529 257.156C129.529 254.615 129.607 252.091 129.755 249.587H188.825Z" fill="#006B33"/>
</svg>
