<svg width="947" height="286" viewBox="0 0 947 286" fill="none" xmlns="http://www.w3.org/2000/svg">
<g clip-path="url(#clip0_67_3)">
<rect x="2" y="40" width="206" height="206" rx="103" fill="#FAFAFA"/>
<rect x="77.4397" y="100.442" width="23.8267" height="40.1649" fill="#006B33"/>
<rect x="108.074" y="100.442" width="23.8267" height="40.1649" fill="#006B33"/>
<path d="M104.5 63C141.224 63 172.203 87.5914 181.871 121.205H157.271C148.542 100.791 128.277 86.4863 104.67 86.4863C73.0883 86.4865 47.4865 112.088 47.4863 143.67C47.4863 170.205 65.5606 192.518 90.0693 198.972C90.5882 206.49 96.8503 212.427 104.5 212.427C112.119 212.427 118.361 206.537 118.924 199.062C143.609 192.729 161.854 170.33 161.854 143.67C161.854 142.757 161.832 141.85 161.79 140.947H184.959C184.985 141.795 185 142.646 185 143.5C185 187.959 148.959 224 104.5 224C60.0411 224 24 187.959 24 143.5C24 99.0411 60.0411 63 104.5 63Z" fill="#006B33"/>
<path d="M77.6123 140.607C77.4997 141.613 77.4395 142.635 77.4395 143.67C77.4395 158.709 89.6311 170.901 104.67 170.901C119.709 170.901 131.9 158.709 131.9 143.67C131.9 142.635 131.84 141.613 131.728 140.607H155.637C155.697 141.62 155.728 142.642 155.728 143.67C155.728 167.23 139.77 187.062 118.073 192.949C116.035 187.43 110.727 183.495 104.5 183.495C98.3048 183.495 93.0196 187.389 90.958 192.864C69.4195 186.873 53.6133 167.118 53.6133 143.67C53.6133 142.642 53.6441 141.62 53.7041 140.607H77.6123Z" fill="#006B33"/>
<path d="M280.332 138.885C272.702 138.885 265.985 137.137 260.183 133.639C254.381 130.063 249.85 124.976 246.591 118.378C243.332 111.781 241.703 103.912 241.703 94.7719C241.703 85.7107 243.293 77.8816 246.472 71.2845C249.731 64.6078 254.261 59.4811 260.064 55.9044C265.866 52.2481 272.662 50.42 280.451 50.42C290.943 50.42 299.09 53.0827 304.892 58.4081C310.695 63.654 314.47 70.887 316.219 80.1071L302.746 80.8225C301.634 75.0997 299.249 70.5691 295.593 67.2308C291.937 63.8925 286.889 62.2233 280.451 62.2233C275.285 62.2233 270.794 63.5348 266.979 66.1578C263.243 68.7807 260.302 72.5165 258.156 77.365C256.089 82.2135 255.056 88.0158 255.056 94.7719C255.056 101.528 256.089 107.33 258.156 112.179C260.302 117.027 263.283 120.723 267.098 123.267C270.913 125.81 275.325 127.082 280.332 127.082C287.168 127.082 292.453 125.294 296.189 121.717C299.925 118.061 302.309 113.053 303.342 106.694L316.815 107.41C315.225 117.027 311.331 124.697 305.131 130.42C299.011 136.064 290.744 138.885 280.332 138.885ZM360.438 138.885C353.682 138.885 347.84 137.614 342.912 135.07C337.984 132.447 334.169 128.751 331.467 123.982C328.844 119.213 327.532 113.57 327.532 107.052V52.2084H340.409V107.052C340.409 113.49 342.157 118.458 345.654 121.955C349.152 125.373 354.08 127.082 360.438 127.082C366.797 127.082 371.725 125.373 375.222 121.955C378.72 118.458 380.468 113.49 380.468 107.052V52.2084H393.345V107.052C393.345 113.57 391.993 119.213 389.291 123.982C386.668 128.751 382.893 132.447 377.965 135.07C373.037 137.614 367.195 138.885 360.438 138.885ZM409.719 136.978V52.3276H422.595V92.745L458.243 52.3276H473.862L441.433 89.2875L476.008 136.978H460.866L432.848 98.3486L422.595 109.794V136.978H409.719ZM514.365 138.885C507.609 138.885 501.767 137.614 496.839 135.07C491.911 132.447 488.096 128.751 485.393 123.982C482.77 119.213 481.459 113.57 481.459 107.052V52.2084H494.335V107.052C494.335 113.49 496.084 118.458 499.581 121.955C503.078 125.373 508.006 127.082 514.365 127.082C520.724 127.082 525.652 125.373 529.149 121.955C532.646 118.458 534.395 113.49 534.395 107.052V52.2084H547.271V107.052C547.271 113.57 545.92 119.213 543.217 123.982C540.595 128.751 536.819 132.447 531.891 135.07C526.963 137.614 521.121 138.885 514.365 138.885ZM565.392 136.978V52.3276H599.132C608.114 52.3276 615.228 54.6327 620.474 59.2427C625.799 63.8527 628.462 70.0525 628.462 77.8419C628.462 82.7698 627.031 87.0222 624.17 90.599C621.388 94.0963 618.01 96.441 614.036 97.6333C617.93 98.2691 620.951 99.7793 623.097 102.164C625.322 104.548 626.634 107.926 627.031 112.298L629.296 136.978H616.301L614.274 113.967C614.036 110.549 612.883 108.046 610.816 106.456C608.75 104.787 605.372 103.952 600.682 103.952H578.268V136.978H565.392ZM578.268 92.1489H599.371C604.219 92.1489 608.034 90.9567 610.816 88.5721C613.678 86.1876 615.109 82.7301 615.109 78.1995C615.109 73.669 613.638 70.2114 610.697 67.8269C607.836 65.3629 603.703 64.1309 598.298 64.1309H578.268V92.1489ZM676.753 138.885C668.566 138.885 661.532 137.137 655.65 133.639C649.768 130.063 645.237 124.976 642.058 118.378C638.879 111.781 637.289 103.912 637.289 94.7719C637.289 85.6313 638.879 77.7624 642.058 71.1652C645.237 64.4886 649.768 59.3619 655.65 55.7852C661.532 52.2084 668.566 50.42 676.753 50.42C685.019 50.42 692.093 52.2084 697.975 55.7852C703.936 59.3619 708.467 64.4886 711.567 71.1652C714.746 77.7624 716.336 85.6313 716.336 94.7719C716.336 103.912 714.746 111.781 711.567 118.378C708.467 124.976 703.936 130.063 697.975 133.639C692.093 137.137 685.019 138.885 676.753 138.885ZM676.753 127.082C684.94 127.082 691.338 124.26 695.948 118.617C700.638 112.894 702.982 104.946 702.982 94.7719C702.982 84.598 700.638 76.6496 695.948 70.9268C691.338 65.1245 684.94 62.2233 676.753 62.2233C668.645 62.2233 662.247 65.1245 657.557 70.9268C652.947 76.6496 650.642 84.598 650.642 94.7719C650.642 104.946 652.947 112.894 657.557 118.617C662.247 124.26 668.645 127.082 676.753 127.082ZM747.792 136.978L717.271 52.3276H730.982L755.9 122.671L780.818 52.3276H794.529L763.888 136.978H747.792ZM783.93 136.978L814.451 52.3276H830.785L861.307 136.978H847.596L839.847 114.921H805.271L797.641 136.978H783.93ZM809.325 103.237H835.912L822.559 64.6078L809.325 103.237ZM265.429 236.978V202.998L235.742 152.328H250.526L271.867 190.122L293.328 152.328H308.111L278.305 202.998V236.978H265.429ZM312.787 236.978V152.328H367.87V164.131H325.664V188.811H366.439V200.256H325.664V225.174H368.823V236.978H312.787ZM382.124 236.978V152.328H399.77L424.926 221.836L450.083 152.328H467.728V236.978H454.852V174.98L432.08 236.858H417.773L395.001 174.98V236.978H382.124ZM483.713 236.978V152.328H538.795V164.131H496.589V188.811H537.364V200.256H496.589V225.174H539.749V236.978H483.713ZM553.981 236.978V152.328H566.858V192.745L602.506 152.328H618.125L585.695 189.288L620.271 236.978H605.129L577.111 198.349L566.858 209.794V236.978H553.981ZM628.674 236.978V152.328H641.55V188.572H680.656V152.328H693.533V236.978H680.656V200.256H641.55V236.978H628.674ZM702.6 236.978L733.122 152.328H749.456L779.978 236.978H766.267L758.517 214.921H723.942L716.311 236.978H702.6ZM727.995 203.237H754.583L741.229 164.608L727.995 203.237ZM787.607 236.978V152.328H803.941L843.047 221.359V152.328H855.923V236.978H838.993L800.483 169.496V236.978H787.607ZM871.964 236.978V152.328H927.046V164.131H884.84V188.811H925.615V200.256H884.84V225.174H928V236.978H871.964Z" fill="white"/>
<path d="M274.274 133.573L286.765 136.515L283.555 150.142L268 149.309L270.578 142.724L274.274 133.573Z" fill="white"/>
</g>
<defs>
<clipPath id="clip0_67_3">
<rect width="947" height="286" fill="white"/>
</clipPath>
</defs>
</svg>
