<svg width="947" height="286" viewBox="0 0 947 286" fill="none" xmlns="http://www.w3.org/2000/svg">
<rect x="70.8171" y="87.7244" width="30.4848" height="51.3887" fill="#0BA452"/>
<rect x="110.012" y="87.7242" width="30.4848" height="51.3887" fill="#0BA452"/>
<path d="M105.439 39.8196C152.425 39.8196 192.061 71.2827 204.431 114.289H172.958C161.788 88.1709 135.86 69.8694 105.657 69.8694C65.2499 69.8694 32.4939 102.625 32.4939 143.032C32.4939 176.983 55.6182 205.531 86.9753 213.788C87.6396 223.407 95.6521 231.003 105.439 231.003C115.187 231.003 123.173 223.468 123.893 213.905C155.477 205.801 178.821 177.143 178.821 143.032C178.821 141.864 178.792 140.703 178.738 139.548H208.382C208.415 140.633 208.434 141.722 208.434 142.815C208.434 199.697 162.322 245.81 105.439 245.81C48.5566 245.81 2.44409 199.697 2.44409 142.815C2.44414 85.9321 48.5566 39.8196 105.439 39.8196Z" fill="#0BA452"/>
<path d="M71.0383 139.113C70.8943 140.4 70.8176 141.708 70.8176 143.033C70.8178 162.274 86.4161 177.873 105.657 177.873C124.899 177.873 140.497 162.274 140.497 143.033C140.497 141.708 140.42 140.4 140.276 139.113H170.865C170.941 140.41 170.982 141.717 170.982 143.033C170.981 173.176 150.565 198.55 122.806 206.082C120.198 199.02 113.406 193.986 105.439 193.986C97.5126 193.986 90.7513 198.969 88.1135 205.972C60.5562 198.307 40.3325 173.033 40.3323 143.033C40.3323 141.717 40.3727 140.41 40.4495 139.113H71.0383Z" fill="#0BA452"/>
<path d="M271.867 190.122L293.328 152.328H308.112L278.305 202.998V236.978H265.428V202.998L235.742 152.328H250.526L271.867 190.122ZM367.87 164.131H325.664V188.811H366.439V200.256H325.664V225.174H368.823V236.978H312.788V152.328H367.87V164.131ZM424.927 221.836L450.083 152.328H467.728V236.978H454.852V174.981L432.08 236.859H417.773L395.001 174.981V236.978H382.125V152.328H399.77L424.927 221.836ZM538.795 164.131H496.59V188.811H537.364V200.256H496.59V225.174H539.749V236.978H483.713V152.328H538.795V164.131ZM566.858 192.746L602.507 152.328H618.125L585.695 189.288L620.27 236.978H605.129L577.111 198.349L566.858 209.794V236.978H553.981V152.328H566.858V192.746ZM641.551 188.572H680.657V152.328H693.533V236.978H680.657V200.256H641.551V236.978H628.675V152.328H641.551V188.572ZM779.977 236.978H766.267L758.517 214.921H723.942L716.311 236.978H702.6L733.122 152.328H749.456L779.977 236.978ZM843.047 221.359V152.328H855.924V236.978H838.993L800.483 169.497V236.978H787.607V152.328H803.941L843.047 221.359ZM927.046 164.131H884.841V188.811H925.615V200.256H884.841V225.174H928V236.978H871.964V152.328H927.046V164.131ZM727.996 203.237H754.583L741.229 164.608L727.996 203.237ZM340.409 107.052C340.409 113.49 342.158 118.458 345.655 121.956C349.152 125.373 354.08 127.082 360.438 127.082C366.797 127.082 371.725 125.373 375.222 121.956C378.72 118.458 380.468 113.49 380.469 107.052V52.2084H393.344V107.052C393.344 113.57 391.993 119.213 389.291 123.982C386.668 128.751 382.893 132.447 377.965 135.07C373.037 137.613 367.194 138.885 360.438 138.885C353.682 138.885 347.841 137.613 342.913 135.07C337.985 132.447 334.169 128.751 331.467 123.982C328.844 119.213 327.532 113.57 327.532 107.052V52.2084H340.409V107.052ZM494.335 107.052C494.335 113.49 496.084 118.458 499.581 121.956C503.078 125.373 508.006 127.082 514.365 127.082C520.724 127.082 525.652 125.373 529.149 121.956C532.646 118.458 534.395 113.49 534.395 107.052V52.2084H547.271V107.052C547.271 113.57 545.92 119.213 543.218 123.982C540.595 128.751 536.819 132.447 531.891 135.07C526.963 137.613 521.121 138.885 514.365 138.885C507.609 138.885 501.767 137.613 496.839 135.07C491.911 132.447 488.096 128.751 485.393 123.982C482.77 119.213 481.459 113.57 481.459 107.052V52.2084H494.335V107.052ZM676.753 50.4203C685.019 50.4203 692.094 52.2088 697.975 55.7856C703.75 59.2505 708.183 64.1695 711.272 70.5434L711.86 71.7875C714.844 78.2555 716.336 85.917 716.336 94.7719C716.336 103.913 714.746 111.781 711.566 118.378C708.466 124.975 703.936 130.062 697.975 133.639C692.094 137.136 685.019 138.885 676.753 138.885C668.566 138.885 661.532 137.136 655.65 133.639C649.768 130.062 645.238 124.975 642.058 118.378C638.879 111.781 637.289 103.912 637.289 94.7719C637.289 85.6313 638.879 77.7626 642.058 71.1655C645.238 64.4888 649.768 59.3623 655.65 55.7856C661.532 52.2088 668.566 50.4204 676.753 50.4203ZM280.451 50.4203C290.943 50.4203 299.09 53.0832 304.892 58.4086C310.694 63.6545 314.47 70.887 316.219 80.1069L302.747 80.8227C301.634 75.0999 299.249 70.5692 295.593 67.2309C291.936 63.8927 286.889 62.2231 280.451 62.2231C275.285 62.2231 270.794 63.5349 266.979 66.1577C263.244 68.7806 260.302 72.5163 258.156 77.3647C256.089 82.2132 255.056 88.0158 255.056 94.7719C255.056 101.528 256.089 107.331 258.156 112.179C260.302 117.028 263.283 120.724 267.098 123.267C270.913 125.81 275.325 127.082 280.332 127.082C287.167 127.082 292.453 125.294 296.189 121.717C299.925 118.061 302.309 113.053 303.343 106.695L316.815 107.41C315.226 117.027 311.33 124.698 305.131 130.42C300.77 134.441 295.321 137.027 288.782 138.183C288.319 133.85 284.653 130.476 280.197 130.476C275.788 130.476 272.153 133.781 271.63 138.048C267.484 137.209 263.669 135.74 260.183 133.639C254.381 130.062 249.85 124.975 246.592 118.378C243.333 111.781 241.703 103.913 241.703 94.7719C241.703 85.7108 243.293 77.8817 246.472 71.2846C249.731 64.608 254.262 59.4815 260.064 55.9047C265.866 52.2486 272.662 50.4204 280.451 50.4203ZM422.595 92.7455L458.243 52.3276H473.862L441.432 89.2875L476.008 136.978H460.866L432.848 98.3491L422.595 109.794V136.978H409.719V52.3276H422.595V92.7455ZM599.133 52.3276C608.114 52.3276 615.228 54.6327 620.473 59.2426C625.799 63.8527 628.462 70.0528 628.462 77.8422C628.462 82.7701 627.031 87.0224 624.17 90.5991C621.388 94.0962 618.01 96.441 614.036 97.6332C617.93 98.2691 620.95 99.7793 623.096 102.164C625.322 104.548 626.634 107.927 627.031 112.298L629.297 136.978H616.301L614.274 113.967C614.036 110.549 612.883 108.045 610.816 106.456C608.75 104.787 605.372 103.953 600.682 103.953H578.268V136.978H565.391V52.3276H599.133ZM755.9 122.67L780.818 52.3276H794.529L763.888 136.978H747.793L717.271 52.3276H730.982L755.9 122.67ZM861.307 136.978H847.596L839.846 114.921H805.271L797.64 136.978H783.929L814.452 52.3276H830.786L861.307 136.978ZM676.753 62.2231C668.645 62.2231 662.247 65.1249 657.557 70.9272C652.947 76.65 650.642 84.5982 650.642 94.7719C650.642 104.946 652.947 112.894 657.557 118.617C662.247 124.26 668.645 127.082 676.753 127.082C684.939 127.082 691.338 124.26 695.948 118.617C700.637 112.894 702.982 104.946 702.982 94.7719C702.982 84.5981 700.637 76.65 695.948 70.9272C691.338 65.1249 684.939 62.2231 676.753 62.2231ZM809.325 103.237H835.912L822.559 64.6078L809.325 103.237ZM578.268 92.1489H599.371C604.219 92.1489 608.034 90.9562 610.816 88.5717C613.678 86.1872 615.108 82.7302 615.108 78.1996C615.108 73.8105 613.729 70.4281 610.969 68.0532L610.426 67.6C607.577 65.2874 603.534 64.1313 598.298 64.1313H578.268V92.1489Z" fill="white" fill-opacity="0.81"/>
</svg>
